<mxfile host="app.diagrams.net" modified="2024-07-07T14:30:42.302Z" agent="Mozilla/5.0 (Windows NT 10.0; Win64; x64) AppleWebKit/537.36 (KHTML, like Gecko) Chrome/126.0.0.0 Safari/537.36" etag="8C_huxLghVbpSWlMVi7q" version="24.6.3" type="github">
  <diagram id="R2lEEEUBdFMjLlhIrx00" name="Page-1">
    <mxGraphModel dx="2782" dy="1672" grid="1" gridSize="10" guides="1" tooltips="1" connect="1" arrows="1" fold="1" page="1" pageScale="1" pageWidth="850" pageHeight="1100" math="0" shadow="0" extFonts="Permanent Marker^https://fonts.googleapis.com/css?family=Permanent+Marker">
      <root>
        <mxCell id="0" />
        <mxCell id="1" parent="0" />
        <mxCell id="5ai3HKOlT_Y96ZPWBoEp-1" value="&lt;span style=&quot;font-size: 24px;&quot;&gt;user&lt;/span&gt;" style="swimlane;whiteSpace=wrap;html=1;startSize=60;movable=1;resizable=1;rotatable=1;deletable=1;editable=1;locked=0;connectable=1;" parent="1" vertex="1">
          <mxGeometry x="210" y="120" width="430" height="310" as="geometry" />
        </mxCell>
        <mxCell id="5ai3HKOlT_Y96ZPWBoEp-2" value="&lt;font style=&quot;font-size: 20px;&quot;&gt;username : CharField(max:32)&lt;/font&gt;&lt;div&gt;&lt;font style=&quot;font-size: 20px;&quot;&gt;first name : CharField(max:32)&lt;br&gt;&lt;/font&gt;&lt;/div&gt;&lt;div&gt;&lt;font style=&quot;font-size: 20px;&quot;&gt;last name : CharField(max:32)&lt;br&gt;&lt;/font&gt;&lt;/div&gt;&lt;div&gt;&lt;font style=&quot;font-size: 20px;&quot;&gt;phone number : CharField(max:11)&lt;/font&gt;&lt;/div&gt;&lt;div&gt;&lt;font style=&quot;font-size: 20px;&quot;&gt;landline number : CharField(max:11)&lt;/font&gt;&lt;/div&gt;&lt;div&gt;&lt;font style=&quot;font-size: 20px;&quot;&gt;email : EmailField&lt;/font&gt;&lt;/div&gt;&lt;div&gt;&lt;span style=&quot;font-size: 20px; background-color: initial;&quot;&gt;city : CharField(max:32)&lt;/span&gt;&lt;br&gt;&lt;/div&gt;&lt;div&gt;&lt;span style=&quot;font-size: 20px;&quot;&gt;is staff : BooleanField(def:false)&lt;/span&gt;&lt;/div&gt;&lt;div&gt;&lt;span style=&quot;font-size: 20px;&quot;&gt;position : CharField(max:32)&lt;/span&gt;&lt;/div&gt;&lt;div&gt;&lt;span style=&quot;font-size: 20px;&quot;&gt;birth date : DateField&lt;/span&gt;&lt;/div&gt;" style="text;html=1;whiteSpace=wrap;overflow=hidden;rounded=0;movable=1;resizable=1;rotatable=1;deletable=1;editable=1;locked=0;connectable=1;" parent="5ai3HKOlT_Y96ZPWBoEp-1" vertex="1">
          <mxGeometry y="60" width="430" height="250" as="geometry" />
        </mxCell>
        <mxCell id="5ai3HKOlT_Y96ZPWBoEp-18" style="edgeStyle=orthogonalEdgeStyle;rounded=0;orthogonalLoop=1;jettySize=auto;html=1;entryX=0.5;entryY=1;entryDx=0;entryDy=0;endArrow=none;endFill=0;movable=0;resizable=0;rotatable=0;deletable=0;editable=0;locked=1;connectable=0;" parent="1" source="5ai3HKOlT_Y96ZPWBoEp-6" target="5ai3HKOlT_Y96ZPWBoEp-2" edge="1">
          <mxGeometry relative="1" as="geometry" />
        </mxCell>
        <mxCell id="5ai3HKOlT_Y96ZPWBoEp-6" value="&lt;span style=&quot;font-size: 24px;&quot;&gt;Business&lt;/span&gt;" style="swimlane;whiteSpace=wrap;html=1;startSize=60;movable=0;resizable=0;rotatable=0;deletable=0;editable=0;locked=1;connectable=0;" parent="1" vertex="1">
          <mxGeometry x="210" y="560" width="430" height="240" as="geometry" />
        </mxCell>
        <mxCell id="5ai3HKOlT_Y96ZPWBoEp-7" value="&lt;font style=&quot;font-size: 20px;&quot;&gt;user : OneToOne&lt;/font&gt;&lt;div&gt;&lt;font style=&quot;font-size: 20px;&quot;&gt;name : CharField(max:32)&lt;br&gt;&lt;/font&gt;&lt;/div&gt;&lt;div&gt;&lt;font style=&quot;font-size: 20px;&quot;&gt;owner first name : CharField(max:32)&lt;br&gt;&lt;/font&gt;&lt;/div&gt;&lt;div&gt;&lt;font style=&quot;font-size: 20px;&quot;&gt;owner last name : CharField(max:32)&lt;br&gt;&lt;/font&gt;&lt;/div&gt;&lt;div&gt;&lt;font style=&quot;font-size: 20px;&quot;&gt;owner phone number : CharField(max:11)&lt;/font&gt;&lt;/div&gt;&lt;div&gt;&lt;span style=&quot;font-size: 20px; background-color: initial;&quot;&gt;address : TextField&lt;/span&gt;&lt;/div&gt;&lt;div&gt;&lt;span style=&quot;font-size: 20px; background-color: initial;&quot;&gt;is confirmed : BooleanField(def:false)&lt;/span&gt;&lt;/div&gt;" style="text;html=1;whiteSpace=wrap;overflow=hidden;rounded=0;movable=0;resizable=0;rotatable=0;deletable=0;editable=0;locked=1;connectable=0;" parent="5ai3HKOlT_Y96ZPWBoEp-6" vertex="1">
          <mxGeometry y="60" width="430" height="180" as="geometry" />
        </mxCell>
        <mxCell id="5ai3HKOlT_Y96ZPWBoEp-10" value="&lt;span style=&quot;font-size: 24px;&quot;&gt;Display Item&lt;/span&gt;" style="swimlane;whiteSpace=wrap;html=1;startSize=60;movable=1;resizable=1;rotatable=1;deletable=1;editable=1;locked=0;connectable=1;" parent="1" vertex="1">
          <mxGeometry x="-950" y="480" width="430" height="190" as="geometry" />
        </mxCell>
        <mxCell id="5ai3HKOlT_Y96ZPWBoEp-11" value="&lt;span style=&quot;font-size: 20px;&quot;&gt;type : CharField(max:16)&lt;/span&gt;&lt;br&gt;&lt;div&gt;&lt;font style=&quot;font-size: 20px;&quot;&gt;name : CharField(max:32)&lt;br&gt;&lt;/font&gt;&lt;/div&gt;&lt;div&gt;&lt;font style=&quot;font-size: 20px;&quot;&gt;dimensions : JsonField&lt;/font&gt;&lt;/div&gt;&lt;div&gt;&lt;span style=&quot;font-size: 20px; background-color: initial;&quot;&gt;price : PositiveIntField&lt;/span&gt;&lt;/div&gt;&lt;div&gt;&lt;font style=&quot;font-size: 20px;&quot;&gt;description : TextField&lt;/font&gt;&lt;/div&gt;" style="text;html=1;whiteSpace=wrap;overflow=hidden;rounded=0;movable=1;resizable=1;rotatable=1;deletable=1;editable=1;locked=0;connectable=1;" parent="5ai3HKOlT_Y96ZPWBoEp-10" vertex="1">
          <mxGeometry y="60" width="430" height="130" as="geometry" />
        </mxCell>
        <mxCell id="5ai3HKOlT_Y96ZPWBoEp-17" style="edgeStyle=orthogonalEdgeStyle;rounded=0;orthogonalLoop=1;jettySize=auto;html=1;entryX=0;entryY=0.25;entryDx=0;entryDy=0;movable=0;resizable=0;rotatable=0;deletable=0;editable=0;locked=1;connectable=0;" parent="1" source="5ai3HKOlT_Y96ZPWBoEp-12" target="5ai3HKOlT_Y96ZPWBoEp-15" edge="1">
          <mxGeometry relative="1" as="geometry" />
        </mxCell>
        <mxCell id="5ai3HKOlT_Y96ZPWBoEp-12" value="&lt;span style=&quot;font-size: 24px;&quot;&gt;Order Item&lt;/span&gt;" style="swimlane;whiteSpace=wrap;html=1;startSize=60;movable=0;resizable=0;rotatable=0;deletable=0;editable=0;locked=1;connectable=0;" parent="1" vertex="1">
          <mxGeometry x="-950" y="120" width="430" height="240" as="geometry" />
        </mxCell>
        <mxCell id="5ai3HKOlT_Y96ZPWBoEp-13" value="&lt;div&gt;&lt;span style=&quot;font-size: 20px;&quot;&gt;order : ForeignKey&lt;/span&gt;&lt;/div&gt;&lt;span style=&quot;font-size: 20px;&quot;&gt;type : CharField(max:16)&lt;/span&gt;&lt;br&gt;&lt;div&gt;&lt;font style=&quot;font-size: 20px;&quot;&gt;name : CharField(max:32)&lt;br&gt;&lt;/font&gt;&lt;/div&gt;&lt;div&gt;&lt;font style=&quot;font-size: 20px;&quot;&gt;dimensions : JsonField&lt;/font&gt;&lt;/div&gt;&lt;div&gt;&lt;span style=&quot;background-color: initial; font-size: 20px;&quot;&gt;price : PositiveIntField&lt;/span&gt;&lt;/div&gt;&lt;div&gt;&lt;span style=&quot;font-size: 20px; background-color: initial;&quot;&gt;description : TextField&lt;/span&gt;&lt;br&gt;&lt;/div&gt;&lt;div&gt;&lt;font style=&quot;font-size: 20px;&quot;&gt;quantity : PositiveIntField&lt;/font&gt;&lt;/div&gt;" style="text;html=1;whiteSpace=wrap;overflow=hidden;rounded=0;movable=0;resizable=0;rotatable=0;deletable=0;editable=0;locked=1;connectable=0;" parent="5ai3HKOlT_Y96ZPWBoEp-12" vertex="1">
          <mxGeometry y="60" width="430" height="180" as="geometry" />
        </mxCell>
        <mxCell id="5ai3HKOlT_Y96ZPWBoEp-16" style="edgeStyle=orthogonalEdgeStyle;rounded=0;orthogonalLoop=1;jettySize=auto;html=1;movable=0;resizable=0;rotatable=0;deletable=0;editable=0;locked=1;connectable=0;" parent="1" source="5ai3HKOlT_Y96ZPWBoEp-14" edge="1">
          <mxGeometry relative="1" as="geometry">
            <mxPoint x="420" y="120" as="targetPoint" />
          </mxGeometry>
        </mxCell>
        <mxCell id="5ai3HKOlT_Y96ZPWBoEp-14" value="&lt;span style=&quot;font-size: 24px;&quot;&gt;Order&lt;/span&gt;" style="swimlane;whiteSpace=wrap;html=1;startSize=60;movable=0;resizable=0;rotatable=0;deletable=0;editable=0;locked=1;connectable=0;" parent="1" vertex="1">
          <mxGeometry x="-380" y="-150" width="490" height="190" as="geometry" />
        </mxCell>
        <mxCell id="5ai3HKOlT_Y96ZPWBoEp-15" value="&lt;span style=&quot;font-size: 20px;&quot;&gt;user : ForeignKey&lt;/span&gt;&lt;div&gt;&lt;span style=&quot;font-size: 20px;&quot;&gt;price : PositiveIntField&lt;/span&gt;&lt;/div&gt;&lt;div&gt;&lt;span style=&quot;font-size: 20px;&quot;&gt;requested date : DateField&lt;/span&gt;&lt;/div&gt;&lt;div&gt;&lt;span style=&quot;font-size: 20px;&quot;&gt;creation date : DateField&lt;/span&gt;&lt;/div&gt;&lt;div&gt;&lt;span style=&quot;font-size: 20px;&quot;&gt;order number : CharField(UST(14)03-(140)300001 ++&lt;/span&gt;&lt;/div&gt;&lt;div&gt;&lt;span style=&quot;font-size: 20px;&quot;&gt;&lt;br&gt;&lt;/span&gt;&lt;/div&gt;" style="text;html=1;whiteSpace=wrap;overflow=hidden;rounded=0;movable=0;resizable=0;rotatable=0;deletable=0;editable=0;locked=1;connectable=0;" parent="5ai3HKOlT_Y96ZPWBoEp-14" vertex="1">
          <mxGeometry y="60" width="490" height="130" as="geometry" />
        </mxCell>
        <mxCell id="5ai3HKOlT_Y96ZPWBoEp-20" value="&lt;span style=&quot;font-size: 24px;&quot;&gt;Fabric Receipt&lt;/span&gt;" style="swimlane;whiteSpace=wrap;html=1;startSize=60;movable=0;resizable=0;rotatable=0;deletable=0;editable=0;locked=1;connectable=0;" parent="1" vertex="1">
          <mxGeometry x="-1510" y="-170" width="430" height="290" as="geometry" />
        </mxCell>
        <mxCell id="5ai3HKOlT_Y96ZPWBoEp-21" value="&lt;div&gt;&lt;span style=&quot;font-size: 20px;&quot;&gt;driver : ForeignKey&lt;/span&gt;&lt;/div&gt;&lt;div&gt;&lt;span style=&quot;font-size: 20px;&quot;&gt;item : ForeignKey&lt;/span&gt;&lt;/div&gt;&lt;span style=&quot;font-size: 20px;&quot;&gt;name : CharField(max:32)&lt;/span&gt;&lt;br&gt;&lt;div&gt;&lt;font style=&quot;font-size: 20px;&quot;&gt;code : CharField(max:32)&lt;br&gt;&lt;/font&gt;&lt;/div&gt;&lt;div&gt;&lt;font style=&quot;font-size: 20px;&quot;&gt;size : PositiveFloatField&lt;/font&gt;&lt;/div&gt;&lt;div&gt;&lt;div&gt;&lt;font style=&quot;font-size: 20px;&quot;&gt;unit : PositiveFloatField&lt;/font&gt;&lt;/div&gt;&lt;/div&gt;&lt;div&gt;&lt;font style=&quot;font-size: 20px;&quot;&gt;total size : PositiveFloatField&lt;/font&gt;&lt;/div&gt;&lt;div&gt;&lt;span style=&quot;font-size: 20px;&quot;&gt;fabric image : OptimizedImageField&lt;/span&gt;&lt;/div&gt;&lt;div&gt;&lt;font style=&quot;font-size: 20px;&quot;&gt;price : PositiveIntField&lt;/font&gt;&lt;/div&gt;&lt;div&gt;&lt;br&gt;&lt;/div&gt;" style="text;html=1;whiteSpace=wrap;overflow=hidden;rounded=0;movable=0;resizable=0;rotatable=0;deletable=0;editable=0;locked=1;connectable=0;" parent="5ai3HKOlT_Y96ZPWBoEp-20" vertex="1">
          <mxGeometry y="60" width="430" height="230" as="geometry" />
        </mxCell>
        <mxCell id="5ai3HKOlT_Y96ZPWBoEp-23" style="edgeStyle=orthogonalEdgeStyle;rounded=0;orthogonalLoop=1;jettySize=auto;html=1;entryX=0;entryY=0.5;entryDx=0;entryDy=0;movable=0;resizable=0;rotatable=0;deletable=0;editable=0;locked=1;connectable=0;" parent="1" source="5ai3HKOlT_Y96ZPWBoEp-21" target="5ai3HKOlT_Y96ZPWBoEp-13" edge="1">
          <mxGeometry relative="1" as="geometry" />
        </mxCell>
        <mxCell id="5ai3HKOlT_Y96ZPWBoEp-25" value="&lt;span style=&quot;font-size: 24px;&quot;&gt;Driver&lt;/span&gt;" style="swimlane;whiteSpace=wrap;html=1;startSize=60;movable=0;resizable=0;rotatable=0;deletable=0;editable=0;locked=1;connectable=0;" parent="1" vertex="1">
          <mxGeometry x="-1510" y="260" width="430" height="220" as="geometry" />
        </mxCell>
        <mxCell id="5ai3HKOlT_Y96ZPWBoEp-26" value="&lt;div&gt;&lt;span style=&quot;background-color: initial; font-size: 20px;&quot;&gt;first name : CharField(max:32)&lt;/span&gt;&lt;br&gt;&lt;/div&gt;&lt;div&gt;&lt;span style=&quot;font-size: 20px;&quot;&gt;last name : CharField(max:32)&lt;/span&gt;&lt;span style=&quot;background-color: initial; font-size: 20px;&quot;&gt;&lt;br&gt;&lt;/span&gt;&lt;/div&gt;&lt;div&gt;&lt;span style=&quot;font-size: 20px;&quot;&gt;phone number : CharField(max:11)&lt;/span&gt;&lt;span style=&quot;font-size: 20px;&quot;&gt;&lt;br&gt;&lt;/span&gt;&lt;/div&gt;&lt;div&gt;&lt;span style=&quot;font-size: 20px;&quot;&gt;national code : CharField(max:10)&lt;/span&gt;&lt;/div&gt;&lt;div&gt;&lt;span style=&quot;font-size: 20px;&quot;&gt;plate number : CharField(max:8)&lt;/span&gt;&lt;/div&gt;&lt;div&gt;&lt;span style=&quot;font-size: 20px;&quot;&gt;car model : CharField(max:16)&lt;/span&gt;&lt;/div&gt;" style="text;html=1;whiteSpace=wrap;overflow=hidden;rounded=0;movable=0;resizable=0;rotatable=0;deletable=0;editable=0;locked=1;connectable=0;" parent="5ai3HKOlT_Y96ZPWBoEp-25" vertex="1">
          <mxGeometry y="60" width="430" height="160" as="geometry" />
        </mxCell>
        <mxCell id="5ai3HKOlT_Y96ZPWBoEp-27" style="edgeStyle=orthogonalEdgeStyle;rounded=0;orthogonalLoop=1;jettySize=auto;html=1;entryX=0.5;entryY=0;entryDx=0;entryDy=0;movable=0;resizable=0;rotatable=0;deletable=0;editable=0;locked=1;connectable=0;" parent="1" source="5ai3HKOlT_Y96ZPWBoEp-21" target="5ai3HKOlT_Y96ZPWBoEp-25" edge="1">
          <mxGeometry relative="1" as="geometry" />
        </mxCell>
        <mxCell id="n3xJkVcLOdowaEHOwrvw-1" value="Burned Tokens" style="swimlane;whiteSpace=wrap;html=1;startSize=23;" vertex="1" parent="1">
          <mxGeometry x="460" y="-350" width="200" height="50" as="geometry" />
        </mxCell>
        <mxCell id="n3xJkVcLOdowaEHOwrvw-2" value="Token : CharField(max:255)" style="text;html=1;whiteSpace=wrap;overflow=hidden;rounded=0;" vertex="1" parent="n3xJkVcLOdowaEHOwrvw-1">
          <mxGeometry y="20" width="200" height="30" as="geometry" />
        </mxCell>
        <mxCell id="n3xJkVcLOdowaEHOwrvw-8" style="edgeStyle=orthogonalEdgeStyle;rounded=0;orthogonalLoop=1;jettySize=auto;html=1;" edge="1" parent="1" source="n3xJkVcLOdowaEHOwrvw-3">
          <mxGeometry relative="1" as="geometry">
            <mxPoint x="950" y="220" as="targetPoint" />
          </mxGeometry>
        </mxCell>
        <mxCell id="n3xJkVcLOdowaEHOwrvw-3" value="Cities" style="swimlane;whiteSpace=wrap;html=1;" vertex="1" parent="1">
          <mxGeometry x="850" y="290" width="200" height="60" as="geometry" />
        </mxCell>
        <mxCell id="n3xJkVcLOdowaEHOwrvw-4" value="&lt;div&gt;province : ForeignKey(Provinces)&lt;/div&gt;name : CharField(max:32)" style="text;html=1;whiteSpace=wrap;overflow=hidden;rounded=0;" vertex="1" parent="n3xJkVcLOdowaEHOwrvw-3">
          <mxGeometry y="20" width="200" height="40" as="geometry" />
        </mxCell>
        <mxCell id="n3xJkVcLOdowaEHOwrvw-5" style="edgeStyle=orthogonalEdgeStyle;rounded=0;orthogonalLoop=1;jettySize=auto;html=1;entryX=0.011;entryY=0.363;entryDx=0;entryDy=0;entryPerimeter=0;" edge="1" parent="1" source="5ai3HKOlT_Y96ZPWBoEp-2" target="n3xJkVcLOdowaEHOwrvw-4">
          <mxGeometry relative="1" as="geometry" />
        </mxCell>
        <mxCell id="n3xJkVcLOdowaEHOwrvw-6" value="Provinces" style="swimlane;whiteSpace=wrap;html=1;" vertex="1" parent="1">
          <mxGeometry x="850" y="170" width="220" height="50" as="geometry" />
        </mxCell>
        <mxCell id="n3xJkVcLOdowaEHOwrvw-7" value="name : CharField(max:32)" style="text;html=1;whiteSpace=wrap;overflow=hidden;rounded=0;" vertex="1" parent="n3xJkVcLOdowaEHOwrvw-6">
          <mxGeometry y="20" width="220" height="20" as="geometry" />
        </mxCell>
      </root>
    </mxGraphModel>
  </diagram>
</mxfile>
